<?xml version="1.0" encoding="UTF-8" standalone="no"?>
<svg
   xmlns:dc="http://purl.org/dc/elements/1.1/"
   xmlns:cc="http://creativecommons.org/ns#"
   xmlns:rdf="http://www.w3.org/1999/02/22-rdf-syntax-ns#"
   xmlns:svg="http://www.w3.org/2000/svg"
   xmlns="http://www.w3.org/2000/svg"
   xmlns:sodipodi="http://sodipodi.sourceforge.net/DTD/sodipodi-0.dtd"
   xmlns:inkscape="http://www.inkscape.org/namespaces/inkscape"
   width="300"
   height="235"
   viewBox="0 0 565 441">
    <path
       d="M 180.2,30.12 C 207.15,14.9 237.45,5.91 268.16,2.66 C 267.07,11.69 266.28,20.77 265.03,29.79 C 233.41,33.79 202.13,45.01 177.01,64.97 C 157.01,80.84 141.8,103.49 137.39,128.86 C 134.46,145.88 137.78,164.46 148.77,178.1 C 158.55,191.44 174.05,199.48 190.1,202.37 C 214.47,206.7 239.41,203.21 263.41,198.24 C 301.92,189.58 338.9,175.18 374.66,158.64 C 402.91,145.54 430.45,130.93 457.45,115.41 C 470.56,108.01 483.31,99.89 496.35,92.42 C 506.99,93.67 514.69,84.98 524.34,82.41 C 526.58,81.15 528.83,82.92 531.01,83.42 C 533.22,82.9 534.71,80.79 537.01,80.44 C 540.79,79.73 544.28,78.1 547.86,76.76 C 550.41,75.71 553.49,76.5 555.81,74.8 C 558.41,73.05 561.02,71.21 564.09,70.34 C 563.49,71.31 562.78,72.22 561.86,72.89 C 531.21,97.9 498.2,119.86 464.37,140.3 C 417.18,168.44 368.08,193.95 316.04,211.88 C 285.65,222.01 254,228.57 222,230.45 C 197.32,231.6 171.56,230.05 148.95,219.2 C 135.88,213.09 124.99,202.83 117.61,190.48 C 106.67,173.23 103.26,152.15 105.06,132.04 C 106.2,118.04 110.25,104.28 117.02,91.97 C 131.76,65.96 154.25,44.76 180.2,30.12 M 541.1,85.88 C 543.58,86.56 548.12,82.41 544.03,81.59 C 542.09,82.2 540.57,83.71 541.1,85.88 M 528.23,92.15 C 526.84,93.28 525.66,94.65 524.54,96.04 C 526.01,99.03 529.72,95.67 530.66,93.69 C 531.79,91.99 529.29,90.95 528.23,92.15 M 506.24,98.2 C 504.93,98.95 504.92,99.61 506.22,100.19 C 507.58,99.42 507.58,98.76 506.24,98.2 M 518.23,98.36 C 517.63,99.99 518.17,100.53 519.83,99.96 C 520.37,98.34 519.83,97.8 518.23,98.36 M 494.25,117.97 C 495.97,117.04 498.05,116.11 498.35,113.91 C 495.71,112.95 493.4,115.39 494.25,117.97 M 475.1,121.78 C 477.5,122.34 479.06,120.23 479.92,118.31 C 477.55,117.45 475.11,119.34 475.1,121.78 z"
       id="path2532"
       style="opacity:1;fill:#66737b" />
    <path
       d="M 134.03,313.95 C 148.88,326.07 163.29,338.78 177.99,351.11 C 180.52,353.06 182.61,355.69 185.59,356.99 C 185.42,343.6 185.46,330.2 185.56,316.8 C 188.84,316.72 192.12,316.72 195.4,316.78 C 195.58,336.73 195.57,356.69 195.41,376.64 C 194.4,375.98 193.43,375.28 192.51,374.53 C 179.01,363 165.47,351.52 151.95,340.01 C 149.37,337.84 146.91,335.51 144.1,333.62 C 143.95,347.35 144.27,361.08 143.93,374.79 C 140.63,374.76 137.32,374.76 134.01,374.78 C 133.76,354.51 133.73,334.21 134.03,313.95 z"
       id="path2534"
       style="opacity:1;fill:#66737b" />
    <path
       d="M 365.11,316.19 C 365.57,315.42 366.1,314.71 366.7,314.04 C 377.43,334.28 388.29,354.45 398.97,374.71 C 395.34,374.81 391.7,374.76 388.07,374.78 C 385.05,370.02 383.56,364.13 380.01,359.85 C 371.02,359.67 362.02,359.79 353.02,359.79 C 351.4,359.44 350.87,361.16 350.29,362.26 C 348.16,366.44 346.19,370.71 343.87,374.79 C 340.29,374.76 336.71,374.78 333.14,374.75 C 343.79,355.23 354.52,335.74 365.11,316.19 M 354.94,353.18 C 362.31,353.35 369.7,353.33 377.08,353.18 C 373.43,345.85 369.93,338.43 365.99,331.25 C 362.12,338.46 358.47,345.8 354.94,353.18 z"
       id="path2536"
       style="opacity:1;fill:#66737b" />
    <path
       d="M 23.15,319.15 C 34.2,314.03 47.59,314.21 58.5,319.62 C 59.96,322.6 58.88,326.52 58.95,329.85 C 52.91,325.56 45.47,323.05 38.01,323.94 C 30.66,324.46 23.29,328.06 19.24,334.37 C 14.62,341.21 14.65,350.84 19.39,357.61 C 24.51,365.2 34.18,368.66 43.08,367.8 C 48.95,367.66 54.11,364.64 59.07,361.83 C 59.18,365.18 59.27,368.54 58.94,371.88 C 47.93,377.22 34.54,377.67 23.32,372.7 C 11.46,367.81 3.33,354.81 5.49,341.93 C 6.83,331.88 14.12,323.35 23.15,319.15 z"
       id="path2538"
       style="opacity:1;fill:#66737b" />
    <path
       d="M 78.09,316.9 C 90.36,316.61 102.64,316.75 114.91,316.83 C 114.91,319.24 114.91,321.65 114.89,324.06 C 105.99,324.29 97.09,324.04 88.19,324.18 C 88.23,329.38 88.16,334.58 88.24,339.78 C 97.09,339.9 105.97,339.44 114.79,340 C 114.75,342.32 114.75,344.66 114.77,346.99 C 105.92,347.37 97.07,347.04 88.22,347.16 C 88.23,353.98 88.11,360.8 88.29,367.63 C 97.18,367.53 106.09,367.4 114.98,367.68 C 114.94,370.04 114.9,372.41 114.84,374.78 C 102.61,374.75 90.37,374.76 78.14,374.78 C 78.09,355.48 78.17,336.19 78.09,316.9 z"
       id="path2540"
       style="opacity:1;fill:#66737b" />
    <path
       d="M 213.97,316.83 C 227.74,316.7 241.51,316.72 255.28,316.82 C 255.36,319.3 255.37,321.78 255.28,324.26 C 250.07,324.59 244.81,323.88 239.63,324.62 C 239.86,341.33 239.67,358.04 239.73,374.75 C 236.43,374.77 233.14,374.75 229.85,374.84 C 229.35,358.01 229.75,341.15 229.65,324.31 C 224.4,324.28 219.15,324.42 213.91,324.24 C 213.86,321.77 213.88,319.3 213.97,316.83 z"
       id="path2542"
       style="opacity:1;fill:#66737b" />
    <path
       d="M 273.87,316.81 C 280.24,316.69 286.62,316.78 292.99,316.75 C 298.23,316.83 303.93,317.43 308.03,321.03 C 315.06,326.86 315.13,339.13 308.02,344.91 C 304.38,348.05 299.51,348.97 294.87,349.43 C 302.2,358.18 310.38,366.22 317.93,374.79 C 313.77,374.51 309.43,375.28 305.39,374.41 C 298.11,366.52 291.53,357.93 284,350.3 C 283.6,358.46 284.01,366.63 283.79,374.79 C 280.52,374.77 277.26,374.76 274,374.79 C 273.62,355.47 273.89,336.14 273.87,316.81 M 283.86,323.79 C 283.99,330.41 283.46,337.06 284.17,343.64 C 289.01,343.22 294.3,344.44 298.69,341.8 C 304.77,338.69 305.15,328.09 298.74,325.17 C 294.05,323.21 288.81,323.69 283.86,323.79 z"
       id="path2544"
       style="opacity:1;fill:#66737b" />
    <path
       d="M 417.12,316.91 C 420.45,316.64 423.79,316.72 427.14,316.81 C 427.29,333.77 427.01,350.74 427.28,367.7 C 434.77,367.73 442.3,367.34 449.79,367.87 C 449.73,370.15 449.73,372.45 449.75,374.74 C 438.89,374.81 428.04,374.71 417.19,374.79 C 417.08,355.5 417.21,336.21 417.12,316.91 z"
       id="path2546"
       style="opacity:1;fill:#66737b" />
    <path
       d="M 468.16,316.91 C 480.41,316.6 492.68,316.76 504.93,316.82 C 505.07,319.25 505.05,321.68 504.89,324.11 C 496,324.23 487.11,324.07 478.22,324.18 C 478.23,329.38 478.19,334.58 478.26,339.78 C 487.1,339.83 495.96,339.57 504.8,339.9 C 504.77,342.27 504.77,344.65 504.77,347.02 C 495.92,347.38 487.05,346.95 478.2,347.23 C 478.29,354.03 478.12,360.84 478.3,367.64 C 487.2,367.53 496.12,367.38 505.02,367.7 C 505.09,370.05 505.07,372.41 504.92,374.77 C 492.69,374.78 480.46,374.72 468.22,374.8 C 468.14,355.5 468.26,336.2 468.16,316.91 z"
       id="path2548"
       style="opacity:1;fill:#66737b" />
    <path
       d="M 489.04,413.06 C 493.4,410.84 498.69,412.03 502.26,415.18 C 501.2,416.61 500.05,417.97 498.85,419.28 C 496.76,417.72 493.19,415.49 491.23,418.34 C 489.47,420.73 492.3,422.79 494.35,423.49 C 498.06,425.02 502.97,427.2 502.73,432 C 503.23,436.69 499.18,440.42 494.79,441 L 490.28,441 C 487.79,440.26 485.64,438.79 483.76,437.05 C 484.81,435.54 486.02,434.16 487.46,433.02 C 488.9,434.59 490.58,436.41 492.96,435.96 C 495.75,436.3 497.69,432.48 495.53,430.56 C 492.63,428.28 488.62,427.72 486.08,424.93 C 483.13,421.18 484.78,415.07 489.04,413.06 z"
       id="path2550"
       style="opacity:1;fill:#66737b" />
    <path
       d="M 4.23,412.95 C 8.91,412.75 13.85,412.07 18.35,413.64 C 24.05,415.76 24.82,424.53 20,427.96 C 17.21,429.99 13.62,429.74 10.37,429.57 C 10.3,433.06 10.35,436.56 10.25,440.05 C 8.28,440.83 6.21,440.74 4.27,439.93 C 4.27,430.93 4.34,421.94 4.23,412.95 M 10.32,417.27 C 10.31,419.81 10.3,422.36 10.26,424.91 C 12.32,425.18 15.17,425.74 16.5,423.66 C 17.19,421.7 17.3,418.86 15.26,417.65 C 13.68,417.09 11.96,417.35 10.32,417.27 z"
       id="path2552"
       style="opacity:1;fill:#66737b" />
    <path
       d="M 134.41,413.26 C 136.29,412.13 138.87,412.76 140.99,412.93 C 144.66,421.84 148,430.95 151.31,440.03 C 149.29,440.8 147,441.45 145.1,439.99 C 144.13,438.17 143.54,436.19 142.81,434.28 C 139.35,434.24 135.88,434.21 132.41,434.31 C 131.86,436.1 131.42,437.95 130.63,439.67 C 128.77,441.03 126.55,440.68 124.48,440.12 C 127.41,431.05 131,422.16 134.41,413.26 M 137.4,419.81 C 136.27,423.1 135.18,426.4 134.11,429.71 C 136.43,429.78 138.76,429.8 141.09,429.79 C 139.96,426.45 139.48,422.72 137.4,419.81 z"
       id="path2554"
       style="opacity:1;fill:#66737b" />
    <path
       d="M 253.2,412.9 C 258.07,412.84 263.28,411.93 267.9,413.89 C 271.8,415.49 272.83,420.57 271.14,424.12 C 270.13,426.18 267.86,426.95 265.94,427.89 C 268.16,432.17 272.07,435.71 273.45,440.28 C 270.57,441.02 266.5,441.03 265.24,437.74 C 263.11,434.98 262.18,431.08 259.36,429.01 C 259.36,432.71 259.49,436.41 259.3,440.11 C 257.27,440.99 255.15,440.97 253.21,439.91 C 253.28,430.9 253.29,421.9 253.2,412.9 M 259.46,417.4 C 259.35,419.75 259.36,422.11 259.52,424.47 C 262.02,424.72 266.05,424.41 265.84,420.99 C 266.11,417.55 261.99,417.1 259.46,417.4 z"
       id="path2556"
       style="opacity:1;fill:#66737b" />
    <path
       d="M 375.85,412.78 C 377.87,412.71 379.89,412.72 381.92,412.8 C 381.84,421.84 382.11,430.89 381.91,439.93 C 379.93,440.4 377.88,440.94 375.89,440.19 C 375.72,431.05 375.81,421.91 375.85,412.78 z"
       id="path2558"
       style="opacity:1;fill:#66737b" />
    <path
       d="M 176.05,134.95 C 221.73,134.77 267.41,134.95 313.09,134.86 C 314.96,134.84 316.83,134.92 318.7,135.04 C 318.68,148.27 318.7,161.51 318.69,174.74 C 296.93,181.43 274.83,187.13 252.43,191.24 C 235.13,194.28 217.54,196.62 199.94,195.61 C 192.09,195.05 184.06,193.76 177.07,189.93 C 175.56,189.32 176.05,187.32 175.88,186.06 C 176.02,169.03 175.68,151.98 176.05,134.95 z"
       id="path2561"
       style="opacity:1;fill:#00a885" />
    <path
       d="M 237.89,238.16 C 265.1,234.26 292.13,228.93 318.54,221.22 C 318.92,240.38 318.56,259.57 318.72,278.75 C 271.15,278.85 223.58,278.77 176.02,278.79 C 175.71,265.01 176.02,251.22 175.86,237.44 C 179.58,237.38 183.23,238.31 186.94,238.52 C 203.86,240.27 220.99,240.26 237.89,238.16 z"
       id="path2563"
       style="opacity:1;fill:#00a885" />
    <path
       d="M 2.23,388.24 C 169.04,388.31 335.85,388.19 502.66,388.3 C 502.55,391.32 502.81,394.37 502.36,397.38 C 336.59,397.18 170.81,397.35 5.03,397.29 C 4.32,397.25 2.88,397.17 2.16,397.12 C 2.21,394.16 2.2,391.2 2.23,388.24 z"
       id="path2565"
       style="opacity:1;fill:#00a885" />
</svg>
